<?xml version="1.0" standalone="no"?>
<!DOCTYPE svg PUBLIC "-//W3C//DTD SVG 20010904//EN"
 "http://www.w3.org/TR/2001/REC-SVG-20010904/DTD/svg10.dtd">
<svg version="1.0" xmlns="http://www.w3.org/2000/svg"
 width="160.000000pt" height="40.000000pt" viewBox="0 0 388.000000 125.000000"
 preserveAspectRatio="xMidYMid meet">

<g transform="translate(0.000000,125.000000) scale(0.100000,-0.100000)"
fill="#000000" stroke="none">
<path d="M672 1143 c-12 -19 -21 -37 -19 -40 3 -2 15 12 27 32 l22 35 28 -30
c20 -22 30 -43 32 -73 l3 -42 55 -3 c30 -2 58 -9 62 -15 5 -8 8 -6 8 6 0 11 6
17 18 15 13 -2 17 4 19 27 1 20 0 23 -4 8 -4 -21 -10 -23 -69 -23 -35 0 -67
-1 -71 -2 -5 -2 -10 15 -13 38 -5 38 -48 105 -67 104 -4 -1 -18 -17 -31 -37z"/>
<path d="M193 1132 c31 -34 48 -144 48 -312 0 -209 8 -256 55 -295 29 -24 35
-36 32 -60 -3 -26 -7 -30 -32 -30 -49 1 -70 56 -74 190 -3 88 -7 113 -20 123
-14 11 -15 14 -3 22 12 7 12 11 2 24 -11 13 -11 17 3 22 14 5 14 9 4 22 -10
12 -10 16 0 19 7 3 12 21 12 44 0 27 -4 37 -12 34 -10 -4 -12 11 -10 62 2 45
-1 77 -11 95 l-14 27 -32 -54 c-81 -133 -111 -316 -77 -469 53 -237 243 -434
476 -492 97 -24 282 -15 372 18 96 36 170 83 241 155 105 106 162 220 189 380
13 79 2 179 -30 278 l-17 50 -92 3 -93 3 0 -26 c0 -15 -4 -24 -10 -20 -5 3
-10 0 -10 -7 0 -49 -23 -237 -31 -254 -13 -25 -8 -80 6 -77 5 1 20 80 32 174
12 94 24 178 27 186 4 11 23 13 83 11 l78 -3 17 -65 c27 -100 33 -212 14 -300
-20 -95 -81 -219 -143 -289 -46 -52 -156 -141 -174 -141 -26 0 12 79 72 148
35 40 36 62 5 91 -14 13 -26 38 -28 55 -3 35 -21 34 -23 -2 0 -14 12 -34 32
-53 35 -31 39 -44 23 -69 -9 -13 -11 -13 -20 0 -6 8 -13 26 -16 40 -4 14 -13
32 -21 41 -8 9 -13 20 -12 25 4 21 -2 35 -11 29 -14 -8 -13 -56 1 -52 6 1 13
-8 15 -21 2 -12 -1 -22 -6 -22 -6 0 -10 5 -10 10 0 6 -4 10 -8 10 -4 0 -14
-34 -21 -75 -16 -94 -43 -177 -61 -183 -9 -3 -11 1 -6 14 6 17 6 17 -11 2 -16
-15 -20 -15 -38 -1 -11 8 -49 30 -85 48 -55 28 -148 105 -127 105 3 0 -2 19
-13 42 -10 23 -16 46 -13 52 12 18 11 57 -1 82 -13 23 -14 22 -20 -30 -3 -30
-3 -61 0 -70 4 -9 0 -18 -9 -22 -9 -3 -13 -12 -10 -21 4 -11 2 -14 -5 -9 -7 4
-12 3 -12 -3 0 -5 7 -14 16 -19 16 -9 -15 -21 -94 -37 -18 -4 -31 -9 -29 -11
5 -5 81 11 112 22 13 5 16 4 11 -4 -4 -7 -2 -12 6 -12 10 0 10 -2 -1 -9 -10
-7 -8 -12 10 -26 16 -11 20 -19 12 -22 -18 -7 -16 -23 5 -40 15 -13 14 -14
-13 -8 -16 4 -31 11 -33 16 -2 5 -15 9 -29 9 -21 0 -24 -2 -13 -15 7 -8 17
-15 23 -15 15 0 100 -51 94 -56 -9 -9 -153 29 -199 52 -48 24 -62 49 -33 60 8
3 22 -1 30 -10 9 -9 28 -15 43 -15 17 1 21 3 9 6 -9 2 -15 8 -12 13 3 4 -11
11 -30 14 -34 7 -46 21 -25 28 6 2 12 14 13 27 1 14 10 27 24 32 27 10 30 34
6 48 -16 9 -14 10 9 11 18 0 29 7 33 20 3 11 11 20 16 20 5 0 9 7 9 15 0 8 6
15 14 15 15 0 40 45 52 94 l7 29 -47 -32 c-26 -18 -69 -42 -97 -53 -27 -12
-47 -23 -45 -26 3 -2 24 3 47 12 23 9 44 14 47 12 11 -12 -71 -37 -99 -31 -37
8 -42 18 -50 85 l-6 55 -2 -62 c0 -34 4 -65 9 -68 14 -9 1 -134 -16 -163 -8
-12 -20 -22 -26 -22 -6 0 -4 8 5 18 15 16 17 45 17 191 0 107 -4 170 -10 166
-17 -10 -80 96 -79 135 l0 35 19 -42 c26 -59 70 -122 70 -101 0 9 -10 28 -22
41 -32 35 -58 111 -65 190 l-6 67 124 0 124 0 18 -60 c10 -34 22 -58 27 -55
13 8 0 68 -17 78 -7 4 -12 20 -12 35 1 15 3 20 5 12 4 -12 15 -14 45 -12 l41
4 -28 -48 c-15 -26 -23 -44 -16 -40 20 12 14 -9 -8 -29 -11 -10 -20 -15 -20
-10 0 4 -7 1 -17 -6 -13 -11 -17 -11 -20 -1 -3 6 -14 12 -25 12 -20 0 -21 -1
-3 -20 15 -17 16 -20 3 -20 -9 0 -18 -12 -21 -27 -5 -25 -43 -61 -53 -50 -2 2
-5 23 -6 46 -1 39 -3 42 -27 39 -24 -3 -26 -7 -27 -58 -1 -47 -1 -48 3 -10 8
89 23 66 24 -38 1 -56 3 -106 4 -112 1 -5 3 -34 4 -64 l1 -53 48 8 c65 10 107
29 165 73 46 35 74 49 49 24 -15 -15 -16 -32 -2 -23 13 8 13 -21 -1 -47 -9
-17 -9 -20 3 -16 9 4 18 -4 25 -23 12 -30 3 -46 -19 -33 -7 4 -4 -2 6 -14 14
-17 16 -22 5 -22 -8 0 -4 -8 11 -20 14 -11 30 -20 35 -20 6 0 -1 9 -15 20 -29
23 -15 27 16 5 12 -8 25 -11 29 -7 9 9 84 9 78 0 -7 -13 11 -9 37 9 43 28 81
67 106 106 22 33 23 39 10 53 -8 8 -19 13 -24 12 -12 -4 -17 15 -5 19 5 2 19
-6 31 -17 19 -18 22 -19 22 -4 0 10 3 15 6 11 11 -11 -26 -101 -61 -149 -50
-68 -93 -97 -164 -109 -68 -12 -77 -27 -33 -57 48 -34 160 -84 171 -77 21 13
39 61 59 160 26 128 33 176 37 250 2 50 1 55 -6 28 -5 -18 -16 -33 -23 -33
-25 0 -46 12 -46 25 0 7 -7 18 -15 25 -9 7 -13 20 -10 28 3 8 -4 26 -16 38
-25 26 -24 61 6 192 l17 72 85 0 c77 0 84 -2 77 -17 -27 -62 -53 -158 -59
-218 -9 -91 2 -80 15 16 12 88 34 159 59 191 10 13 22 34 26 48 7 24 7 24 -12
8 -24 -22 -178 -26 -186 -5 -3 6 -11 -10 -18 -36 -10 -37 -15 -44 -21 -30 -7
16 -8 16 -6 -2 0 -11 -2 -27 -6 -35 -3 -8 -10 -49 -14 -90 -6 -55 -11 -70 -17
-55 -5 11 -13 23 -18 26 -5 4 -11 50 -14 104 l-5 98 46 -5 c25 -3 46 -2 46 3
0 5 -20 9 -44 9 -26 0 -47 5 -50 13 -5 10 -7 10 -12 0 -4 -9 -29 -13 -75 -13
-62 0 -69 2 -69 20 0 11 -4 20 -10 20 -5 0 -10 -9 -10 -20 0 -16 -7 -20 -38
-20 -21 0 -44 6 -51 13 -11 10 -14 10 -18 0 -3 -9 -35 -13 -111 -12 -136 1
-176 13 -72 23 117 10 160 17 160 27 0 5 9 9 19 9 25 0 32 12 20 30 -7 13 -9
13 -9 0 0 -8 -12 -20 -27 -27 -40 -16 -162 -36 -203 -31 -31 3 -35 7 -46 44
-16 54 -32 84 -46 84 -6 0 -4 -8 5 -18z m-18 -79 c-2 -16 -4 -31 -4 -34 -1 -7
-41 -20 -41 -13 0 11 35 74 41 74 4 0 6 -12 4 -27z m-5 -118 c0 -56 6 -65 28
-43 9 9 12 8 12 -4 0 -8 -7 -21 -15 -28 -12 -10 -13 -16 -4 -26 8 -10 8 -14 1
-14 -12 0 -11 -64 1 -76 11 -11 8 -97 -4 -133 -10 -28 -8 -40 21 -98 32 -65
33 -68 17 -96 -10 -16 -17 -43 -17 -60 l0 -32 -20 25 c-33 41 -87 160 -104
231 -23 94 -21 235 5 331 20 74 22 78 50 78 28 0 29 -1 29 -55z m600 26 c0
-11 -16 -57 -36 -103 -46 -108 -51 -123 -20 -68 30 55 33 48 6 -15 -24 -57
-24 -55 -2 -55 10 0 27 -7 40 -15 19 -14 24 -14 49 2 l28 17 -29 -28 -28 -27
-20 20 c-23 25 -36 26 -66 5 -12 -8 -22 -11 -22 -5 0 5 7 14 16 19 9 5 13 12
8 15 -5 3 -19 -3 -32 -13 -13 -11 -18 -21 -12 -25 5 -3 10 -11 10 -17 0 -6 -6
-6 -15 2 -13 11 -14 10 -9 -5 5 -13 4 -16 -4 -11 -17 10 -15 21 12 53 22 26
42 88 25 78 -8 -6 -32 95 -24 103 3 3 5 -1 5 -8 0 -7 3 -10 6 -7 4 4 2 12 -4
19 -5 7 -13 30 -17 51 l-7 37 71 0 c63 0 71 -2 71 -19z m-174 -67 c-8 -32 -20
-60 -26 -62 -5 -2 -10 -9 -10 -17 0 -23 -26 -37 -39 -21 -10 12 -9 13 8 9 13
-3 21 -1 21 6 0 7 -4 10 -9 6 -5 -3 -12 -1 -15 3 -3 5 6 14 20 20 13 7 29 23
34 38 13 33 13 54 0 34 -5 -8 -10 -11 -10 -7 0 12 32 58 37 53 2 -2 -3 -30
-11 -62z m174 -18 c-6 -20 -16 -36 -20 -36 -5 0 -7 6 -5 13 19 55 26 69 31 64
3 -3 1 -22 -6 -41z m-153 -8 c-3 -8 -6 -5 -6 6 -1 11 2 17 5 13 3 -3 4 -12 1
-19z m0 -74 c9 -24 -9 -32 -37 -18 -24 13 -24 14 -3 14 12 0 24 -6 26 -12 4
-10 6 -10 6 0 1 7 -9 17 -21 22 l-23 9 23 0 c12 1 25 -6 29 -15z m-109 -6 c15
-15 16 -38 1 -38 -6 0 -9 7 -5 15 3 8 -2 19 -12 24 -9 6 -12 11 -6 11 5 0 15
-5 22 -12z m259 -50 c-2 -13 -4 -3 -4 22 0 25 2 35 4 23 2 -13 2 -33 0 -45z
m-25 30 c-7 -7 -12 -8 -12 -2 0 14 12 26 19 19 2 -3 -1 -11 -7 -17z m-97 -7
c-3 -6 -11 -11 -17 -11 -6 0 -6 6 2 15 14 17 26 13 15 -4z m-219 -26 c-11 -8
-24 -15 -30 -15 -5 0 -1 7 10 15 10 8 24 14 29 14 6 0 1 -6 -9 -14z m66 -21
c-12 -8 -28 -12 -35 -8 -6 4 5 -10 26 -31 21 -21 40 -35 44 -31 3 3 0 6 -8 6
-8 1 -3 7 11 15 34 19 50 18 25 -2 -20 -16 -16 -16 30 3 11 4 13 2 10 -9 -7
-17 -40 -33 -89 -43 -20 -3 -39 -10 -42 -15 -7 -12 -74 -12 -74 0 0 5 -3 17
-6 26 -6 15 -1 16 48 10 65 -8 78 2 43 35 -25 24 -35 16 -12 -10 10 -12 9 -12
-6 0 -10 7 -16 19 -13 26 8 20 -10 26 -36 14 -22 -11 -22 -11 -3 5 11 8 25 13
32 11 7 -3 13 -1 13 4 0 6 15 10 32 10 32 0 32 0 10 -16z m68 1 c-7 -8 -24
-15 -38 -15 -25 0 -25 1 -6 15 10 8 27 15 38 15 15 0 16 -3 6 -15z m60 -10
c-7 -8 -18 -15 -24 -15 -6 0 -2 7 8 15 25 19 32 19 16 0z m-297 -75 c-6 -6
-63 61 -63 74 0 5 15 -8 34 -30 19 -21 32 -41 29 -44z m555 6 c-2 -16 -9 -31
-16 -32 -7 -1 -8 0 -2 3 25 12 6 73 -24 73 -17 0 -18 2 -6 10 23 14 52 -18 48
-54z m-141 34 c3 -10 2 -11 -4 -4 -4 6 -15 14 -23 17 -11 5 -9 6 4 4 11 -1 21
-9 23 -17z m9 -66 c-3 -8 -13 -14 -23 -14 -17 1 -17 1 0 11 9 5 18 20 18 32 1
18 2 19 6 4 3 -10 2 -25 -1 -33z m-59 4 c-3 -7 -5 -2 -5 12 0 14 2 19 5 13 2
-7 2 -19 0 -25z m129 5 c-10 -10 -19 5 -10 18 6 11 8 11 12 0 2 -7 1 -15 -2
-18z m-527 -41 c1 -7 -3 -10 -9 -7 -5 3 -10 18 -9 33 0 24 1 25 9 7 5 -11 9
-26 9 -33z m618 -4 c13 -12 23 -25 23 -30 0 -14 -47 -9 -60 7 -9 11 -22 14
-40 10 -19 -4 -29 -2 -33 9 -5 11 3 16 31 19 20 2 41 4 46 5 6 1 20 -8 33 -20z
m-124 -10 c4 -12 5 -23 4 -24 -1 -1 -29 -4 -62 -6 -55 -3 -60 -1 -63 19 -4 24
10 30 74 32 35 1 43 -3 47 -21z m103 -78 c2 0 0 9 -6 21 -16 29 -7 33 21 8 13
-11 19 -18 12 -15 -6 4 -15 -3 -18 -14 -5 -17 -9 -19 -21 -9 -12 10 -13 9 -8
-6 5 -13 4 -16 -5 -11 -6 4 -11 13 -10 19 3 24 -1 37 -11 37 -5 0 -10 -6 -10
-13 0 -17 -105 -78 -124 -72 -53 17 -51 15 -29 30 11 8 53 32 94 54 l74 40 18
-34 c9 -19 20 -35 23 -35z m-606 -79 c0 -24 -26 -75 -33 -64 -7 11 15 83 25
83 5 0 8 -8 8 -19z m173 2 c-7 -2 -19 -2 -25 0 -7 3 -2 5 12 5 14 0 19 -2 13
-5z m542 -78 c-3 -26 -8 -45 -11 -43 -2 3 -1 26 2 52 4 25 9 44 12 42 2 -3 1
-26 -3 -51z m-735 -25 c0 -5 -4 -10 -10 -10 -5 0 -10 5 -10 10 0 6 5 10 10 10
6 0 10 -4 10 -10z m593 -22 c-13 -12 -26 -19 -29 -15 -4 4 1 14 12 22 29 22
41 18 17 -7z m-491 -28 c-2 -22 -8 -37 -13 -34 -14 8 -11 62 4 67 6 3 12 6 12
6 0 1 -1 -17 -3 -39z m363 -29 c22 -11 33 -20 25 -20 -8 0 -33 8 -55 19 -22
11 -33 19 -25 19 8 0 33 -8 55 -18z m249 -26 c-6 -16 -24 -21 -24 -7 0 11 11
22 21 22 5 0 6 -7 3 -15z m-265 -15 c-13 -9 -39 -2 -39 10 0 4 12 5 26 2 17
-3 22 -7 13 -12z m21 -50 c0 -5 -9 -10 -20 -10 -11 0 -20 5 -20 10 0 6 9 10
20 10 11 0 20 -4 20 -10z"/>
<path d="M760 465 c-30 -19 -51 -35 -46 -35 10 0 106 60 106 66 0 6 -2 5 -60
-31z"/>
<path d="M527 1116 c-4 -10 -3 -15 3 -11 6 3 13 -1 16 -9 8 -22 17 -20 33 7
13 20 13 21 -3 8 -14 -12 -18 -12 -30 4 -12 17 -13 17 -19 1z"/>
<path d="M619 1099 c4 -13 13 -24 20 -25 6 -1 7 0 1 3 -5 2 -10 11 -10 18 0 8
-4 17 -10 20 -6 4 -7 -2 -1 -16z"/>
<path d="M1775 1061 c-3 -5 -28 -17 -56 -26 -40 -14 -49 -20 -43 -34 4 -9 6
-28 5 -44 -1 -30 -68 -216 -82 -232 -5 -5 -9 -18 -9 -29 0 -37 -17 -3 -60 122
-41 118 -42 123 -25 142 18 20 17 20 -45 20 l-63 0 21 -22 c11 -13 43 -87 70
-165 46 -131 48 -142 33 -158 -15 -15 -12 -16 47 -14 46 2 66 -1 73 -12 5 -8
9 -9 9 -3 0 6 -7 17 -15 24 -8 7 -15 9 -15 5 0 -4 -6 -2 -14 4 -11 9 -4 35 40
151 61 160 83 205 119 249 15 17 24 31 21 31 -2 0 -7 -4 -11 -9z"/>
<path d="M964 1045 c-18 -14 -17 -14 9 -4 23 11 30 9 50 -8 20 -18 57 -37 57
-29 0 6 -76 56 -86 56 -6 0 -19 -7 -30 -15z"/>
<path d="M1774 1021 c-24 -29 -57 -91 -50 -91 3 0 13 15 22 33 9 17 26 42 37
54 11 13 19 25 16 27 -2 2 -13 -8 -25 -23z"/>
<path d="M1803 962 c12 -13 17 -37 17 -76 0 -51 -2 -57 -25 -66 -14 -5 -25
-14 -25 -20 0 -7 6 -8 19 0 26 13 28 8 30 -73 2 -56 -1 -71 -16 -83 -16 -12 2
-13 130 -14 l148 0 -20 29 c-12 16 -21 34 -21 40 0 6 -13 -3 -28 -20 -25 -28
-35 -32 -83 -33 l-54 -1 0 80 0 80 37 3 c28 2 40 -2 52 -20 16 -22 16 -21 16
27 0 48 -1 49 -16 27 -12 -18 -23 -22 -52 -19 l-37 4 0 64 0 64 44 3 c49 4 84
-10 97 -39 8 -16 12 -14 31 21 l21 40 -140 0 c-136 0 -141 -1 -125 -18z"/>
<path d="M2153 962 c14 -15 17 -42 17 -157 0 -129 -2 -140 -22 -162 l-21 -23
60 0 c40 0 63 -4 66 -12 2 -7 8 -10 12 -6 4 4 -9 17 -29 29 -20 11 -39 31 -41
43 -3 11 -5 71 -3 131 l3 110 23 -45 c108 -206 135 -250 152 -250 17 0 19 12
22 161 3 155 4 161 27 180 l23 19 -56 0 -56 0 20 -20 c18 -18 20 -32 19 -140
0 -66 -3 -120 -5 -120 -2 0 -33 58 -68 128 -58 115 -63 129 -48 140 14 9 4 11
-47 11 -61 1 -63 0 -48 -17z"/>
<path d="M2505 960 c12 -14 18 -36 18 -76 0 -49 -4 -59 -21 -65 -11 -4 -23
-12 -27 -18 -4 -8 1 -8 19 -2 l24 10 4 -76 c2 -64 0 -78 -14 -87 -10 -6 -18
-13 -18 -16 0 -3 67 -5 148 -5 l148 0 -25 41 -26 42 -13 -24 c-13 -25 -67 -44
-114 -41 l-28 2 0 83 0 82 32 0 c19 0 41 -9 55 -22 l23 -21 0 48 0 48 -23 -21
c-15 -14 -33 -21 -55 -19 l-32 2 0 68 0 67 50 0 c41 0 56 -5 77 -26 14 -14 26
-24 28 -22 1 2 10 18 19 36 l17 32 -142 0 c-141 0 -142 0 -124 -20z"/>
<path d="M2840 975 c0 -2 8 -20 17 -40 l17 -35 22 27 c18 23 30 27 89 31 57 4
67 2 63 -10 -4 -8 -51 -83 -107 -166 -56 -83 -101 -154 -101 -157 0 -3 68 -5
150 -5 83 0 150 3 150 6 0 3 -8 20 -17 37 -10 18 -19 34 -20 36 -1 2 -13 -10
-27 -25 -22 -26 -31 -29 -90 -31 -36 -1 -66 2 -66 7 0 6 47 79 105 164 58 85
105 157 105 160 0 3 -65 6 -145 6 -80 0 -145 -2 -145 -5z"/>
<path d="M3223 962 c25 -28 25 -297 0 -325 -17 -18 -16 -19 47 -16 42 2 65 -1
68 -9 2 -7 8 -12 14 -12 6 0 3 9 -7 20 -10 11 -20 18 -23 15 -3 -3 -11 0 -19
6 -10 9 -13 47 -13 152 0 131 2 142 22 164 l21 23 -63 0 c-60 0 -62 -1 -47
-18z"/>
<path d="M3523 962 c16 -17 16 -22 0 -63 -20 -52 -38 -73 -54 -63 -6 3 -15 0
-20 -7 -13 -20 -11 -29 5 -29 8 0 18 -4 21 -10 10 -15 -33 -102 -67 -137 l-32
-33 61 0 c36 0 65 5 69 12 4 7 3 8 -4 4 -23 -14 -36 39 -22 89 7 25 15 45 19
45 6 0 35 -35 53 -64 5 -7 17 -1 36 17 l29 28 22 -47 c21 -44 21 -47 5 -65
-17 -18 -15 -19 43 -19 46 0 60 3 60 15 0 8 -4 12 -8 10 -11 -7 -25 15 -48 75
-26 69 -26 80 0 80 16 0 19 4 13 23 -9 30 -11 32 -29 17 -20 -17 -28 -8 -50
57 -15 43 -16 54 -6 67 12 14 6 16 -49 16 -60 0 -62 -1 -47 -18z m33 -74 c-4
-23 -3 -28 3 -18 12 18 13 16 34 -40 15 -39 15 -46 2 -59 -12 -13 -17 -11 -34
10 -13 15 -19 33 -16 49 4 24 4 24 -6 4 -9 -18 -7 -28 12 -53 12 -17 20 -33
17 -36 -3 -3 -17 10 -32 29 l-26 35 21 55 c24 63 35 72 25 24z"/>
<path d="M3139 953 c-13 -16 -12 -17 4 -4 16 13 21 21 13 21 -2 0 -10 -8 -17
-17z"/>
<path d="M1519 943 c-13 -16 -12 -17 4 -4 16 13 21 21 13 21 -2 0 -10 -8 -17
-17z"/>
<path d="M2261 944 c0 -11 3 -14 6 -6 3 7 2 16 -1 19 -3 4 -6 -2 -5 -13z"/>
<path d="M2425 940 c-10 -11 -16 -22 -14 -24 2 -2 12 7 22 20 22 29 17 32 -8
4z"/>
<path d="M3319 943 c-13 -16 -12 -17 4 -4 9 7 17 15 17 17 0 8 -8 3 -21 -13z"/>
<path d="M2750 910 c-6 -11 -8 -20 -6 -20 3 0 10 9 16 20 6 11 8 20 6 20 -3 0
-10 -9 -16 -20z"/>
<path d="M2909 913 c-13 -16 -12 -17 4 -4 16 13 21 21 13 21 -2 0 -10 -8 -17
-17z"/>
<path d="M1706 905 c-9 -26 -7 -32 5 -12 6 10 9 21 6 23 -2 3 -7 -2 -11 -11z"/>
<path d="M1893 880 c0 -25 2 -35 4 -22 2 12 2 32 0 45 -2 12 -4 2 -4 -23z"/>
<path d="M2326 807 c3 -10 9 -15 12 -12 3 3 0 11 -7 18 -10 9 -11 8 -5 -6z"/>
<path d="M1892 723 l2 -68 3 60 c2 33 10 63 16 67 8 5 6 8 -5 8 -16 0 -18 -9
-16 -67z"/>
<path d="M2613 783 c9 -2 23 -2 30 0 6 3 -1 5 -18 5 -16 0 -22 -2 -12 -5z"/>
<path d="M1027 713 c-3 -5 -8 -30 -12 -56 -6 -42 -4 -53 15 -79 17 -23 19 -32
10 -38 -10 -6 -10 -9 0 -15 12 -8 30 10 30 31 0 6 -9 23 -20 37 -18 22 -19 31
-10 69 12 54 12 58 1 58 -6 0 -12 -3 -14 -7z m23 -134 c0 -6 -4 -7 -10 -4 -5
3 -10 11 -10 16 0 6 5 7 10 4 6 -3 10 -11 10 -16z"/>
<path d="M3589 703 c-13 -16 -12 -17 4 -4 16 13 21 21 13 21 -2 0 -10 -8 -17
-17z"/>
<path d="M2770 683 c0 -5 10 -18 23 -29 l22 -19 -20 25 c-11 14 -21 27 -22 29
-2 2 -3 0 -3 -6z"/>
<path d="M2099 638 c7 -9 9 -23 5 -30 -6 -10 -4 -11 7 0 11 10 10 15 -6 30
-17 15 -18 15 -6 0z"/>
<path d="M3164 620 c0 -13 4 -16 10 -10 7 7 7 13 0 20 -6 6 -10 3 -10 -10z"/>
<path d="M2806 613 c-6 -14 -5 -15 5 -6 7 7 10 15 7 18 -3 3 -9 -2 -12 -12z"/>
<path d="M3760 626 c0 -2 8 -10 18 -17 15 -13 16 -12 3 4 -13 16 -21 21 -21
13z"/>
<path d="M1004 545 c-4 -15 -2 -31 5 -38 6 -6 11 -9 12 -6 6 43 6 60 -1 64 -5
3 -12 -6 -16 -20z"/>
<path d="M256 500 c3 -14 11 -32 16 -40 6 -10 7 -7 2 10 -3 14 -11 32 -16 40
-6 10 -7 7 -2 -10z"/>
<path d="M2060 463 c-62 -24 -107 -93 -90 -138 15 -40 35 -26 32 22 -3 33 2
47 25 72 15 17 42 34 60 37 27 5 37 1 63 -24 16 -17 30 -38 30 -47 0 -38 -30
-84 -67 -104 -38 -20 -38 -20 -10 -21 58 0 117 57 117 115 0 17 -12 39 -34 61
-27 27 -41 34 -72 33 -22 0 -46 -3 -54 -6z"/>
<path d="M2277 446 c-3 -8 0 -19 7 -26 10 -8 15 -6 20 6 7 17 0 34 -14 34 -4
0 -10 -6 -13 -14z"/>
<path d="M2635 439 c-4 -11 -4 -23 0 -27 7 -7 25 17 25 36 0 20 -18 14 -25 -9z"/>
<path d="M2840 429 c0 -24 23 -21 28 4 2 10 -3 17 -12 17 -10 0 -16 -9 -16
-21z"/>
<path d="M2040 334 c-33 -88 -42 -135 -26 -144 10 -6 85 175 85 208 2 50 -28
18 -59 -64z"/>
<path d="M2704 395 c8 -30 -24 -97 -56 -119 -30 -22 -38 -20 -38 7 0 16 9 28
25 35 33 15 55 60 35 72 -19 12 -67 -14 -75 -41 -10 -31 -65 -89 -84 -89 -33
0 -31 13 14 66 47 55 54 67 32 58 -8 -3 -26 0 -40 5 -38 15 -55 5 -67 -38 -13
-51 -63 -97 -90 -85 -18 8 -16 13 30 65 l50 57 -48 4 c-63 6 -70 2 -82 -41
-11 -37 -46 -88 -56 -79 -3 3 5 26 17 51 20 41 21 77 2 77 -4 0 -18 -26 -29
-58 -35 -96 4 -121 56 -37 12 19 24 34 28 34 19 -3 23 3 11 17 -10 13 -10 17
1 24 14 9 40 3 40 -10 0 -4 -18 -30 -40 -57 l-40 -50 40 -7 c49 -8 72 3 100
49 12 19 24 34 28 34 19 -3 23 3 11 17 -10 13 -10 17 1 24 14 9 40 3 40 -10 0
-4 -18 -30 -40 -58 l-40 -50 39 -7 c40 -7 81 6 81 25 0 18 18 10 23 -10 13
-50 89 -4 132 80 9 17 20 30 25 30 14 0 13 -12 -5 -53 -8 -20 -15 -43 -15 -52
0 -23 28 -30 49 -11 16 15 19 15 24 1 9 -22 34 -19 48 6 l11 21 14 -21 c16
-22 48 -28 59 -11 4 6 13 5 25 -2 15 -10 23 -9 40 7 12 11 28 33 36 50 l14 30
-17 -24 c-57 -79 -80 -84 -37 -7 24 42 27 76 7 76 -4 0 -18 -22 -31 -48 -35
-70 -50 -88 -63 -75 -8 8 -8 21 0 46 14 41 47 75 53 56 3 -10 6 -10 12 -1 11
18 -21 27 -49 14 -13 -6 -33 -28 -44 -49 -18 -36 -61 -84 -61 -69 0 4 9 24 20
46 11 22 20 48 20 60 0 35 -24 22 -43 -24 -10 -24 -29 -54 -42 -66 -31 -30
-31 -24 1 38 28 55 26 72 -12 72 -15 0 -24 6 -24 15 0 8 -7 15 -16 15 -12 0
-15 -6 -10 -25z m-34 -23 c0 -5 -11 -19 -25 -32 -28 -26 -33 -16 -9 18 15 22
34 30 34 14z"/>
<path d="M648 379 c19 -21 29 -38 22 -41 -6 -2 7 -4 30 -4 34 -1 38 1 29 13
-7 8 -19 11 -27 8 -9 -3 -30 8 -51 27 l-36 33 33 -36z"/>
<path d="M720 385 c0 -3 6 -12 13 -19 10 -12 16 -12 40 0 37 19 34 24 -13 24
-22 0 -40 -2 -40 -5z"/>
</g>
</svg>
